<svg width="664" height="385" viewBox="0 0 664 385" fill="none" xmlns="http://www.w3.org/2000/svg">
<path d="M228.472 162.735C228.472 157.298 227.72 151.918 226.158 146.771C226.563 152.381 227.315 157.76 228.472 162.735Z" fill="#CEA0E5"/>
<path d="M408.762 54.0516C401.763 42.1364 391.989 32.9396 379.726 26.8663C367.464 20.793 353.061 17.6118 337.155 17.6118H336.982C320.092 17.6118 304.649 20.8509 291.114 27.0977C277.521 33.4024 265.722 42.1943 256.062 53.2419C246.345 64.3473 238.826 77.3615 233.678 91.8796C229.166 104.547 226.737 118.139 226.158 132.253C233.909 145.44 236.223 160.884 232.81 175.518C233.909 178.121 235.124 180.608 236.512 182.979C243.511 194.894 253.286 204.033 265.548 210.164C277.868 216.353 292.271 219.535 308.35 219.535H308.524C325.298 219.535 340.683 216.296 354.218 210.049C367.753 203.744 379.552 194.952 389.212 183.905C398.929 172.799 406.449 159.843 411.712 145.325C416.918 130.749 419.578 115.016 419.578 98.5314C419.578 81.0634 415.993 66.0825 408.936 54.1095L408.762 54.0516ZM366.133 124.849C363.935 134.046 360.523 142.722 355.895 150.588C351.153 158.57 345.022 165.106 337.676 170.023C330.156 174.997 321.133 177.542 310.722 177.542H310.606C303.087 177.542 296.724 176.096 291.634 173.204C286.429 170.254 282.38 165.8 279.777 159.958C277.232 154.29 275.902 147.291 275.902 139.136C275.902 130.46 277.001 121.436 279.141 112.355C281.339 103.216 284.751 94.5403 289.436 86.674C294.121 78.6919 300.311 72.098 307.772 67.1815C315.291 62.1493 324.43 59.6043 334.784 59.6043C342.014 59.6622 348.723 61.0504 353.871 63.9424C359.135 66.8923 363.068 71.346 365.671 77.1301C368.216 82.7407 369.488 89.7395 369.488 98.0107C369.488 106.687 368.389 115.768 366.249 124.907L366.133 124.849Z" fill="#CEA0E5"/>
<path d="M497.896 213.288C494.252 213.288 490.781 214.387 487.716 216.585H508.77C506.399 215.081 503.911 213.982 501.193 213.577C500.094 213.404 498.995 213.288 497.953 213.288H497.896Z" fill="#CEA0E5"/>
<path d="M497.896 207.504C499.284 207.504 500.672 207.62 502.06 207.851C508.018 208.777 513.108 211.958 517.561 216.527H540.525L546.829 178.005L468.512 178.121C467.645 178.121 466.835 177.774 466.314 177.08C465.736 176.443 465.505 175.576 465.678 174.708L491.128 20.0415H442.137L409.804 216.643L479.387 216.527C484.245 210.628 490.608 207.446 497.896 207.446V207.504Z" fill="#CEA0E5"/>
<path d="M596.514 209.47L627.691 19.8677H578.699L546.366 216.469H587.664C590.556 213.866 593.507 211.553 596.514 209.47Z" fill="#CEA0E5"/>
<path d="M0 375.473L24.5824 227.111H88.0917L93.7604 273.499C94.2231 277.49 94.6277 282.754 94.9748 289.348C95.3218 295.942 95.6112 302.998 95.8425 310.518C96.0739 318.037 96.1896 325.267 96.2475 332.208C96.3053 339.149 96.2473 344.991 96.0738 349.791H88.6124C90.0006 344.991 91.8514 339.149 94.2228 332.208C96.5943 325.267 99.0814 318.037 101.742 310.518C104.403 302.998 107.006 295.942 109.493 289.348C111.98 282.754 114.178 277.49 115.971 273.499L136.794 227.111H200.419L175.837 375.473H135.232L144.718 318.152C145.297 314.798 146.164 310.286 147.263 304.676C148.362 299.065 149.577 292.934 150.849 286.224C152.122 279.515 153.452 272.805 154.725 266.038C155.997 259.27 157.154 253.024 158.08 247.297H160.393C158.137 253.602 155.708 260.138 153.047 266.963C150.387 273.789 147.726 280.382 145.065 286.861C142.405 293.339 139.917 299.296 137.546 304.676C135.174 310.055 133.208 314.566 131.53 318.152L104.866 375.473H71.4335L63.3938 318.152C62.7576 313.352 62.0056 307.047 61.1959 299.123C60.3861 291.199 59.692 282.696 58.9979 273.557C58.3616 264.418 57.841 255.626 57.4939 247.297H60.386C59.4605 253.024 58.5351 259.27 57.5518 266.038C56.5686 272.805 55.6429 279.515 54.7752 286.224C53.9076 292.934 53.0401 299.065 52.2881 304.676C51.5362 310.286 50.8422 314.798 50.2638 318.152L40.7778 375.473H0.173339H0Z" fill="#CEA0E5"/>
<path d="M251.03 377.498C238.826 377.498 228.009 375.126 218.581 370.383C209.153 365.64 201.75 358.699 196.428 349.56C191.107 340.422 188.388 329.258 188.388 316.07C188.388 303.635 190.355 291.951 194.288 280.961C198.221 269.971 203.832 260.312 211.178 251.925C218.523 243.538 227.315 237.002 237.611 232.259C247.907 227.516 259.417 225.145 272.142 225.145C284.867 225.145 295.047 227.516 304.475 232.201C313.845 236.886 321.249 243.827 326.628 253.024C332.007 262.163 334.668 273.384 334.668 286.687C334.668 299.123 332.701 310.807 328.768 321.739C324.835 332.671 319.166 342.33 311.821 350.717C304.475 359.104 295.683 365.64 285.445 370.383C275.207 375.126 263.755 377.498 251.03 377.498ZM252.765 342.446C259.995 342.446 266.184 340.711 271.39 337.298C276.596 333.886 280.818 329.374 284.115 323.763C287.412 318.153 289.899 312.08 291.461 305.486C293.023 298.892 293.774 292.529 293.774 286.282C293.774 280.498 292.907 275.698 291.171 271.822C289.436 267.947 286.833 265.055 283.421 263.088C279.95 261.122 275.67 260.138 270.465 260.138C263.234 260.138 256.987 261.873 251.782 265.286C246.576 268.699 242.296 273.268 238.999 278.879C235.702 284.489 233.215 290.563 231.653 297.099C230.091 303.635 229.34 309.997 229.34 316.244C229.34 321.97 230.207 326.771 232 330.646C233.735 334.522 236.338 337.472 239.809 339.438C243.279 341.405 247.56 342.388 252.765 342.388V342.446Z" fill="#CEA0E5"/>
<path d="M473.37 227.168H435.08L420.157 317.458C419.405 322.028 417.612 326.25 414.72 330.01C411.828 333.769 408.241 336.835 403.961 339.091C399.681 341.347 395.054 342.503 390.08 342.503C385.857 342.503 382.213 341.578 379.263 339.785C376.313 337.992 374.173 335.389 372.958 332.034C371.686 328.679 371.455 324.746 372.149 320.119L387.477 227.226H347.277L331.718 320.929C329.867 332.208 330.966 342.098 335.073 350.601C339.179 359.104 345.831 365.698 354.97 370.383C364.109 375.068 375.272 377.381 388.344 377.381C401.416 377.381 411.944 375.241 422.008 371.019C432.014 366.797 440.285 360.608 446.822 352.568C453.358 344.528 457.522 334.811 459.373 323.532L469.727 260.832C468.801 245.678 470.536 234.919 473.37 227.226V227.168Z" fill="#CEA0E5"/>
<path d="M640.01 239.779C639.721 239.836 639.374 239.894 639.085 239.894C637.06 239.894 635.267 238.448 634.805 236.482C634.4 234.689 635.21 232.78 636.656 231.912C640.242 229.309 642.844 224.913 644.059 220.286C637.812 192.985 601.026 204.206 577.831 235.73C551.051 272.112 540.003 338.918 540.003 338.918C540.003 338.918 539.425 219.708 501.076 213.577C481.121 210.395 463.884 235.845 484.707 309.998C505.53 384.15 519.47 384.15 531.848 384.092C578.41 384.034 637.523 285.126 644.291 238.217C642.902 238.795 641.514 239.374 640.01 239.779Z" fill="#CEA0E5"/>
<path d="M663.956 204.09C663.552 219.591 653.661 233.184 639.432 237.001C638.622 237.175 637.812 236.654 637.639 235.845C637.465 235.208 637.812 234.572 638.333 234.225C646.373 228.383 650.191 215.08 646.084 206.751C643.712 202.123 645.563 196.397 650.19 194.026C656.958 190.382 664.998 196.628 663.899 204.032L663.956 204.09Z" fill="#CEA0E5"/>
<path d="M215.206 197.902C236.076 178.677 233.681 146.103 216.004 125.566C189.888 91.9076 140.28 79.9847 108.062 52.3737C106.922 50.2059 116.216 54.8267 130.7 62.0147C132.696 62.9845 134.748 63.9543 136.858 64.9812C154.022 73.3101 175.918 80.7263 194.108 76.5048C215.32 72.3973 223.303 51.1186 212.754 34.1755C202.832 17.2324 183.103 8.16189 164.514 3.71219C131.897 -3.53284 93.6358 -1.25094 67.2348 20.256C30.2847 51.8603 51.8389 95.6157 92.6665 110.163C105.325 115.753 118.953 120.545 131.327 127.277C155.504 140.626 164.97 150.21 134.634 134.807C106.238 120.317 72.937 108.851 40.7767 114.67C8.61648 119.404 -10.5428 147.415 11.2395 174.683C53.6636 223.858 163.259 243.369 214.522 198.7L215.263 197.959L215.206 197.902Z" fill="#CEA0E5"/>
</svg>
